<svg version="1.1" id="Layer_1" xmlns="http://www.w3.org/2000/svg" x="0" y="0" viewBox="0 0 200 200" xml:space="preserve"><style>.st0{fill:#840000}.st1{fill:#fa0822}.st2{fill:#ffc3c3}</style><switch><g><path class="st0" d="M37.04 45.39h9v18h-9zM46.04 45.39h9v9h-9zM46.04 36.39h18v9h-18zM64.04 54.39h9v9h-9zM82.04 54.39h9v9h-9zM91.04 45.39h18v18h-18zM73.04 63.39h9v9h-9zM64.04 72.39h9v9h-9zM55.04 81.39h9v9h-9zM46.04 90.39h18v18h-18z"/><path class="st1" d="M73.04 90.39h9v18h-9zM82.04 90.39h9v27h-9zM91.04 90.39h9v36h-9zM100.04 90.39h9v18h-9zM118.04 90.39h9v9h-9z"/><path class="st2" d="M109.04 90.39h9v9h-9zM100.04 81.39h9v9h-9z"/><path class="st0" d="M109.04 99.39h27v9h-27zM127.04 108.39h9v9h-9zM100.04 108.39h18v9h-18zM100.04 117.39h9v18h-9zM109.04 126.39h9v9h-9z"/><path class="st2" d="M118.04 117.39h9v9h-9zM127.04 126.39h9v9h-9zM136.04 135.39h9v9h-9zM145.04 144.39h9v9h-9zM154.04 153.39h9v9h-9z"/><path d="M109.04 117.39h9v9h-9zM118.04 108.39h9v9h-9zM91.04 135.39h45v9h-45zM118.04 126.39h9v9h-9zM82.04 126.39h18v9h-18zM73.04 117.39h18v9h-18zM37.04 108.39h45v9h-45zM37.04 81.39h9v27h-9zM46.04 72.39h9v18h-9z"/><path d="M55.04 72.39h9v9h-9zM46.04 54.39h18v9h-18zM28.04 63.39h45v9h-45zM55.04 45.39h36v9h-36zM73.04 54.39h9v9h-9zM127.04 144.39h18v9h-18zM136.04 153.39h18v9h-18zM145.04 162.39h27v9h-27zM163.04 144.39h9v18h-9zM154.04 135.39h9v18h-9zM145.04 126.39h9v18h-9zM127.04 117.39h9v9h-9z"/><path d="M136.04 90.39h9v45h-9z"/><path d="M127.04 81.39h9v18h-9zM109.04 81.39h18v9h-18zM109.04 36.39h9v45h-9zM64.04 36.39h45v9h-45zM28.04 36.39h9v27h-9zM37.04 27.39h9v18h-9z"/><path d="M46.04 27.39h27v9h-27zM73.04 72.39h27v18h-27zM82.04 63.39h27v9h-27zM100.04 72.39h9v9h-9zM64.04 81.39h9v27h-9z"/></g></switch></svg>