<svg version="1.1" id="Layer_1" xmlns="http://www.w3.org/2000/svg" x="0" y="0" viewBox="0 0 200 200" xml:space="preserve"><style>.st0{fill:#840072}.st1{fill:#fa05d9}.st2{fill:#ffc3c3}</style><switch><g><path transform="rotate(-180 158.542 54.39)" class="st0" d="M154.04 45.39h9v18h-9z"/><path transform="rotate(-180 149.542 49.89)" class="st0" d="M145.04 45.39h9v9h-9z"/><path transform="rotate(-180 145.042 40.89)" class="st0" d="M136.04 36.39h18v9h-18z"/><path transform="rotate(-180 131.542 58.89)" class="st0" d="M127.04 54.39h9v9h-9z"/><path transform="rotate(-180 113.542 58.89)" class="st0" d="M109.04 54.39h9v9h-9z"/><path transform="rotate(-180 100.042 54.39)" class="st0" d="M91.04 45.39h18v18h-18z"/><path transform="rotate(-180 122.542 67.89)" class="st0" d="M118.04 63.39h9v9h-9z"/><path transform="rotate(-180 131.542 76.89)" class="st0" d="M127.04 72.39h9v9h-9z"/><path transform="rotate(-180 140.542 85.89)" class="st0" d="M136.04 81.39h9v9h-9z"/><path transform="rotate(-180 145.042 99.39)" class="st0" d="M136.04 90.39h18v18h-18z"/><path transform="rotate(-180 122.542 99.39)" class="st1" d="M118.04 90.39h9v18h-9z"/><path transform="rotate(-180 113.542 103.89)" class="st1" d="M109.04 90.39h9v27h-9z"/><path transform="rotate(-180 104.542 108.39)" class="st1" d="M100.04 90.39h9v36h-9z"/><path transform="rotate(-180 95.542 99.39)" class="st1" d="M91.04 90.39h9v18h-9z"/><path transform="rotate(-180 77.542 94.89)" class="st1" d="M73.04 90.39h9v9h-9z"/><path transform="rotate(-180 86.542 94.89)" class="st2" d="M82.04 90.39h9v9h-9z"/><path transform="rotate(-180 95.542 85.89)" class="st2" d="M91.04 81.39h9v9h-9z"/><path transform="rotate(-180 77.542 103.89)" class="st0" d="M64.04 99.39h27v9h-27z"/><path transform="rotate(-180 68.542 112.89)" class="st0" d="M64.04 108.39h9v9h-9z"/><path transform="rotate(-180 91.042 112.89)" class="st0" d="M82.04 108.39h18v9h-18z"/><path transform="rotate(-180 95.542 126.39)" class="st0" d="M91.04 117.39h9v18h-9z"/><path transform="rotate(-180 86.542 130.89)" class="st0" d="M82.04 126.39h9v9h-9z"/><path transform="rotate(-180 77.542 121.89)" class="st2" d="M73.04 117.39h9v9h-9z"/><path transform="rotate(-180 68.542 130.89)" class="st2" d="M64.04 126.39h9v9h-9z"/><path transform="rotate(-180 59.542 139.89)" class="st2" d="M55.04 135.39h9v9h-9z"/><path transform="rotate(-180 50.542 148.89)" class="st2" d="M46.04 144.39h9v9h-9z"/><path transform="rotate(-180 41.542 157.89)" class="st2" d="M37.04 153.39h9v9h-9z"/><path transform="rotate(-180 86.542 121.89)" d="M82.04 117.39h9v9h-9z"/><path transform="rotate(-180 77.542 112.89)" d="M73.04 108.39h9v9h-9z"/><path transform="rotate(-180 86.542 139.89)" d="M64.04 135.39h45v9h-45z"/><path transform="rotate(-180 77.542 130.89)" d="M73.04 126.39h9v9h-9z"/><path transform="rotate(-180 109.042 130.89)" d="M100.04 126.39h18v9h-18z"/><path transform="rotate(-180 118.042 121.89)" d="M109.04 117.39h18v9h-18z"/><path transform="rotate(-180 140.542 112.89)" d="M118.04 108.39h45v9h-45z"/><path transform="rotate(-180 158.542 94.89)" d="M154.04 81.39h9v27h-9z"/><path transform="rotate(-180 149.542 81.39)" d="M145.04 72.39h9v18h-9z"/><path transform="rotate(-180 140.542 76.89)" d="M136.04 72.39h9v9h-9z"/><path transform="rotate(-180 145.042 58.89)" d="M136.04 54.39h18v9h-18z"/><path transform="rotate(-180 149.542 67.89)" d="M127.04 63.39h45v9h-45z"/><path transform="rotate(-180 127.042 49.89)" d="M109.04 45.39h36v9h-36z"/><path transform="rotate(-180 122.542 58.89)" d="M118.04 54.39h9v9h-9z"/><path transform="rotate(-180 64.042 148.89)" d="M55.04 144.39h18v9h-18z"/><path transform="rotate(-180 55.042 157.89)" d="M46.04 153.39h18v9h-18z"/><path transform="rotate(-180 41.542 166.89)" d="M28.04 162.39h27v9h-27z"/><path transform="rotate(-180 32.542 153.39)" d="M28.04 144.39h9v18h-9z"/><path transform="rotate(-180 41.542 144.39)" d="M37.04 135.39h9v18h-9z"/><path transform="rotate(-180 50.542 135.39)" d="M46.04 126.39h9v18h-9z"/><path transform="rotate(-180 68.542 121.89)" d="M64.04 117.39h9v9h-9z"/><path transform="rotate(-180 59.542 112.89)" d="M55.04 90.39h9v45h-9z"/><path transform="rotate(-180 68.542 90.39)" d="M64.04 81.39h9v18h-9z"/><path transform="rotate(-180 82.042 85.89)" d="M73.04 81.39h18v9h-18z"/><path transform="rotate(-180 86.542 58.89)" d="M82.04 36.39h9v45h-9z"/><path transform="rotate(-180 113.542 40.89)" d="M91.04 36.39h45v9h-45z"/><path transform="rotate(-180 167.542 49.89)" d="M163.04 36.39h9v27h-9z"/><path transform="rotate(-180 158.542 36.39)" d="M154.04 27.39h9v18h-9z"/><path transform="rotate(-180 140.542 31.89)" d="M127.04 27.39h27v9h-27z"/><path transform="rotate(-180 113.542 81.39)" d="M100.04 72.39h27v18h-27z"/><path transform="rotate(-180 104.542 67.89)" d="M91.04 63.39h27v9h-27z"/><path transform="rotate(-180 95.542 76.89)" d="M91.04 72.39h9v9h-9z"/><path transform="rotate(-180 131.542 94.89)" d="M127.04 81.39h9v27h-9z"/></g></switch></svg>