<svg version="1.1" id="Layer_1" xmlns="http://www.w3.org/2000/svg" x="0" y="0" viewBox="0 0 200 200" xml:space="preserve"><style>.st0{fill:#9f7159}.st1{fill:#493b36}.st2{fill:#e6c7aa}</style><switch><g><path class="st0" d="M64.04 36.39h9v9h-9zM55.04 45.39h9v9h-9z"/><path class="st1" d="M73.04 45.39h36v9h-36zM118.04 45.39h9v9h-9zM100.04 63.39h27v9h-27zM64.04 63.39h27v9h-27zM64.04 81.39h9v9h-9zM82.04 81.39h36v9h-36zM73.04 99.39h9v9h-9zM91.04 99.39h18v9h-18zM118.04 99.39h9v9h-9zM64.04 117.39h18v9h-18zM91.04 117.39h36v9h-36zM64.04 135.39h27v9h-27zM100.04 135.39h9v9h-9z"/><path class="st0" d="M127.04 36.39h9v9h-9zM64.04 153.39h72v9h-72zM127.04 144.39h18v9h-18zM136.04 45.39h9v99h-9z"/><path d="M55.04 36.39h9v9h-9zM136.04 36.39h9v9h-9zM136.04 153.39h9v9h-9zM55.04 153.39h9v9h-9zM64.04 162.39h72v9h-72zM64.04 27.39h72v9h-72zM46.04 45.39h9v108h-9zM145.04 45.39h9v108h-9z"/><path class="st2" d="M55.04 144.39h72v9h-72zM109.04 126.39h27v18h-27zM73.04 36.39h54v9h-54zM109.04 45.39h9v9h-9zM64.04 45.39h9v9h-9zM55.04 54.39h9v90h-9zM91.04 135.39h9v9h-9zM64.04 126.39h45v9h-45zM82.04 117.39h9v9h-9zM64.04 90.39h9v27h-9zM82.04 99.39h9v9h-9zM109.04 99.39h9v9h-9zM73.04 81.39h9v9h-9zM127.04 45.39h9v81h-9zM73.04 108.39h54v9h-54zM73.04 90.39h54v9h-54zM64.04 72.39h63v9h-63zM118.04 81.39h9v9h-9zM91.04 63.39h9v9h-9zM64.04 54.39h63v9h-63z"/></g></switch></svg>