<svg version="1.1" id="Layer_1" xmlns="http://www.w3.org/2000/svg" x="0" y="0" viewBox="0 0 200 200" xml:space="preserve"><style>.st0{fill:#fe48ff}.st1{fill:#333}</style><switch><g><path class="st0" d="M118.04 45.39h18v9h-18zM100.04 45.39h9v9h-9zM82.04 45.39h9v9h-9zM64.04 45.39h9v9h-9zM64.04 63.39h72v9h-72zM64.04 90.39h9v9h-9zM64.04 108.39h9v9h-9zM64.04 126.39h9v9h-9zM64.04 144.39h18v9h-18zM100.04 144.39h9v9h-9zM118.04 144.39h9v9h-9zM82.04 126.39h54v9h-54zM82.04 108.39h54v9h-54zM82.04 90.39h54v9h-54z"/><path class="st1" d="M55.04 36.39h90v9h-90zM55.04 153.39h90v9h-90zM55.04 45.39h9v108h-9zM136.04 45.39h9v108h-9z"/><path class="st1" d="M64.04 135.39h72v9h-72zM64.04 117.39h72v9h-72zM64.04 99.39h72v9h-72zM64.04 72.39h72v18h-72zM64.04 54.39h72v9h-72zM109.04 45.39h9v9h-9zM91.04 45.39h9v9h-9zM73.04 45.39h9v9h-9zM73.04 90.39h9v9h-9zM73.04 108.39h9v9h-9zM73.04 126.39h9v9h-9zM82.04 144.39h18v9h-18zM109.04 144.39h9v9h-9zM127.04 144.39h9v9h-9z"/><path d="M46.04 27.39h108v9h-108zM145.04 36.39h9v135h-9zM46.04 36.39h9v135h-9z"/><path d="M55.04 162.39h90v9h-90z"/></g></switch></svg>