<svg version="1.1" id="Layer_1" xmlns="http://www.w3.org/2000/svg" x="0" y="0" viewBox="0 0 200 200" xml:space="preserve"><style>.st0{fill:#e18154}.st1{fill:#592613}.st2{fill:#d10100}</style><switch><g><path class="st0" d="M28.04 99.39h9v9h-9zM46.04 90.39h9v18h-9z"/><path class="st0" d="M55.04 99.39h9v9h-9zM64.04 90.39h18v9h-18zM91.04 81.39h18v9h-18zM100.04 90.39h9v9h-9z"/><path class="st1" d="M37.04 99.39h9v9h-9zM55.04 90.39h9v9h-9zM73.04 99.39h9v9h-9zM82.04 90.39h9v36h-9zM91.04 117.39h9v9h-9zM100.04 99.39h9v9h-9zM109.04 81.39h9v18h-9zM109.04 108.39h9v9h-9zM64.04 117.39h9v9h-9z"/><path class="st0" d="M73.04 126.39h9v9h-9z"/><path class="st1" d="M118.04 72.39h27v9h-27z"/><path class="st0" d="M118.04 63.39h18v9h-18zM136.04 90.39h18v9h-18zM154.04 81.39h9v9h-9z"/><path class="st1" d="M145.04 99.39h9v9h-9zM145.04 117.39h9v9h-9z"/><path class="st0" d="M154.04 117.39h9v9h-9z"/><path class="st2" d="M118.04 99.39h9v9h-9zM127.04 108.39h9v9h-9zM145.04 63.39h9v9h-9z"/><path d="M136.04 63.39h9v9h-9zM109.04 54.39h45v9h-45zM100.04 63.39h18v18h-18zM82.04 72.39h18v9h-18zM37.04 81.39h54v9h-54zM28.04 90.39h18v9h-18zM19.04 108.39h63v9h-63zM64.04 99.39h9v9h-9zM73.04 117.39h9v9h-9zM100.04 117.39h45v9h-45zM118.04 108.39h9v9h-9zM109.04 99.39h9v9h-9zM91.04 90.39h9v27h-9zM100.04 108.39h9v9h-9zM118.04 81.39h18v18h-18zM145.04 72.39h27v9h-27z"/><path d="M136.04 81.39h18v9h-18zM127.04 99.39h18v9h-18zM136.04 108.39h36v9h-36zM154.04 90.39h9v18h-9zM163.04 81.39h18v9h-18zM163.04 117.39h18v9h-18zM82.04 126.39h81v9h-81zM64.04 126.39h9v9h-9z"/><path fill="none" d="M154.04 54.39h9v18h-9z"/><path d="M154.04 54.39h9v18h-9zM163.04 90.39h9v9h-9zM163.04 126.39h9v9h-9zM19.04 90.39h9v18h-9zM55.04 117.39h9v18h-9zM64.04 135.39h27v9h-27zM154.04 135.39h9v9h-9z"/></g></switch></svg>