<svg version="1.1" id="Layer_1" xmlns="http://www.w3.org/2000/svg" x="0" y="0" viewBox="0 0 200 200" xml:space="preserve"><style>.st0{fill:red}.st1{fill:#d68663}.st2{fill:#72422c}</style><switch><g><path class="st0" d="M95.54 85.89h9v27h-9zM104.54 94.89h9v9h-9zM86.54 94.89h9v9h-9z"/><path d="M77.54 94.89h9v9h-9zM86.54 85.89h9v9h-9zM95.54 76.89h9v9h-9zM104.54 85.89h9v9h-9zM113.54 94.89h9v9h-9zM104.54 103.89h9v9h-9zM95.54 112.89h9v9h-9zM86.54 103.89h9v9h-9z"/><path class="st1" d="M77.54 103.89h9v9h-9zM86.54 112.89h9v9h-9zM104.54 112.89h9v9h-9zM113.54 103.89h9v9h-9zM104.54 76.89h9v9h-9zM113.54 85.89h9v9h-9zM86.54 76.89h9v9h-9zM77.54 85.89h9v9h-9z"/><path class="st2" d="M86.54 67.89h27v9h-27zM86.54 121.89h27v9h-27zM122.54 85.89h9v27h-9zM68.54 85.89h9v27h-9zM77.54 76.89h9v9h-9zM113.54 76.89h9v9h-9zM113.54 112.89h9v9h-9zM77.54 112.89h9v9h-9z"/><path d="M59.54 85.89h9v27h-9zM131.54 85.89h9v27h-9zM86.54 130.89h27v9h-27zM86.54 58.89h27v9h-27zM113.54 67.89h9v9h-9zM122.54 76.89h9v9h-9zM122.54 112.89h9v9h-9zM113.54 121.89h9v9h-9zM77.54 121.89h9v9h-9zM68.54 112.89h9v9h-9zM68.54 76.89h9v9h-9zM77.54 67.89h9v9h-9z"/><path class="st1" d="M86.54 49.89h27v9h-27zM95.54 40.89h9v9h-9zM50.54 85.89h9v27h-9zM41.54 94.89h9v9h-9zM140.54 85.89h9v27h-9zM149.54 94.89h9v9h-9zM86.54 139.89h27v9h-27zM95.54 148.89h9v9h-9zM59.54 76.89h9v9h-9zM68.54 67.89h9v9h-9zM77.54 58.89h9v9h-9zM59.54 58.89h9v9h-9zM113.54 58.89h9v9h-9zM122.54 67.89h9v9h-9zM131.54 76.89h9v9h-9zM131.54 58.89h9v9h-9zM59.54 112.89h9v9h-9zM68.54 121.89h9v9h-9zM77.54 130.89h9v9h-9zM59.54 130.89h9v9h-9zM113.54 130.89h9v9h-9zM122.54 121.89h9v9h-9zM131.54 112.89h9v9h-9zM131.54 130.89h9v9h-9z"/><path class="st2" d="M95.54 31.89h9v9h-9zM50.54 49.89h18v9h-18zM50.54 58.89h9v9h-9zM131.54 49.89h18v9h-18zM140.54 58.89h9v9h-9zM50.54 130.89h9v18h-9z"/><path class="st2" d="M59.54 139.89h9v9h-9zM140.54 130.89h9v18h-9zM131.54 139.89h9v9h-9zM68.54 58.89h9v9h-9zM77.54 49.89h9v9h-9zM86.54 40.89h9v9h-9zM104.54 40.89h9v9h-9zM113.54 49.89h9v9h-9zM122.54 58.89h9v9h-9zM131.54 67.89h9v9h-9zM140.54 76.89h9v9h-9zM149.54 85.89h9v9h-9zM158.54 94.89h9v9h-9zM59.54 67.89h9v9h-9zM50.54 76.89h9v9h-9zM41.54 85.89h9v9h-9zM32.54 94.89h9v9h-9zM41.54 103.89h9v9h-9zM50.54 112.89h9v9h-9zM59.54 121.89h9v9h-9zM68.54 130.89h9v9h-9zM77.54 139.89h9v9h-9zM86.54 148.89h9v9h-9zM95.54 157.89h9v9h-9zM104.54 148.89h9v9h-9zM113.54 139.89h9v9h-9zM122.54 130.89h9v9h-9zM131.54 121.89h9v9h-9zM140.54 112.89h9v9h-9zM149.54 103.89h9v9h-9z"/><path d="M50.54 121.89h9v9h-9zM68.54 139.89h9v9h-9zM122.54 139.89h9v9h-9zM140.54 121.89h9v9h-9zM140.54 67.89h9v9h-9zM122.54 49.89h9v9h-9zM68.54 49.89h9v9h-9zM50.54 67.89h9v9h-9zM23.54 85.89h9v27h-9zM86.54 166.89h27v9h-27zM167.54 85.89h9v27h-9zM86.54 22.89h27v9h-27zM77.54 31.89h18v9h-18zM104.54 31.89h18v9h-18zM32.54 76.89h9v18h-9zM32.54 103.89h9v18h-9zM77.54 157.89h18v9h-18zM104.54 157.89h18v9h-18zM158.54 103.89h9v18h-9zM158.54 76.89h9v18h-9zM41.54 40.89h45v9h-45zM41.54 49.89h9v36h-9zM113.54 40.89h45v9h-45zM149.54 49.89h9v36h-9zM41.54 112.89h9v45h-9z"/><path d="M50.54 148.89h36v9h-36zM113.54 148.89h45v9h-45zM149.54 112.89h9v36h-9z"/></g></switch></svg>