<svg version="1.1" id="Layer_1" xmlns="http://www.w3.org/2000/svg" x="0" y="0" viewBox="0 0 200 200" xml:space="preserve"><style>.st0{fill:#c7fe45}.st1{fill:#ff5186}.st2{fill:#941bff}</style><switch><g><path d="M32.54 85.89h9v18h-9zM41.54 103.89h9v9h-9zM50.54 112.89h9v9h-9zM59.54 103.89h9v9h-9zM68.54 112.89h18v9h-18zM77.54 121.89h9v9h-9zM86.54 130.89h9v9h-9zM86.54 103.89h9v9h-9zM95.54 94.89h9v9h-9zM104.54 85.89h9v9h-9z"/><path d="M41.54 85.89h54v9h-54zM77.54 139.89h9v9h-9zM86.54 148.89h9v9h-9zM95.54 157.89h18v9h-18zM104.54 103.89h9v54h-9zM68.54 148.89h9v9h-9zM59.54 157.89h9v9h-9zM50.54 148.89h9v9h-9zM41.54 139.89h9v9h-9zM41.54 121.89h9v9h-9zM32.54 130.89h9v9h-9zM113.54 67.89h9v18h-9zM122.54 76.89h9v9h-9zM131.54 85.89h9v9h-9zM104.54 58.89h9v9h-9zM113.54 49.89h9v9h-9zM104.54 40.89h9v9h-9zM86.54 31.89h18v9h-18zM86.54 40.89h9v45h-9zM122.54 40.89h9v9h-9zM131.54 31.89h9v9h-9zM140.54 40.89h9v9h-9zM149.54 49.89h9v9h-9zM140.54 76.89h9v9h-9zM149.54 85.89h9v9h-9zM158.54 94.89h9v18h-9z"/><path d="M113.54 103.89h45v9h-45zM149.54 67.89h9v9h-9zM158.54 58.89h9v9h-9z"/><path class="st0" d="M131.54 40.89h9v9h-9zM140.54 49.89h9v9h-9zM149.54 58.89h9v9h-9zM140.54 67.89h9v9h-9zM131.54 76.89h9v9h-9zM122.54 67.89h9v9h-9zM113.54 58.89h9v9h-9zM122.54 49.89h9v9h-9zM59.54 112.89h9v9h-9zM68.54 121.89h9v9h-9zM50.54 121.89h9v9h-9zM41.54 130.89h9v9h-9zM50.54 139.89h9v9h-9zM59.54 148.89h9v9h-9zM68.54 139.89h9v9h-9zM77.54 130.89h9v9h-9z"/><path class="st1" d="M122.54 58.89h27v9h-27zM131.54 49.89h9v9h-9zM131.54 67.89h9v9h-9zM41.54 94.89h54v9h-54zM95.54 103.89h9v54h-9zM86.54 139.89h9v9h-9zM86.54 112.89h9v18h-9zM68.54 103.89h18v9h-18zM50.54 103.89h9v9h-9z"/><path class="st2" d="M95.54 40.89h9v54h-9zM104.54 67.89h9v18h-9zM104.54 49.89h9v9h-9zM104.54 94.89h54v9h-54zM140.54 85.89h9v9h-9zM113.54 85.89h18v9h-18zM50.54 130.89h27v9h-27zM59.54 121.89h9v9h-9zM59.54 139.89h9v9h-9z"/></g></switch></svg>