<svg version="1.1" id="Layer_1" xmlns="http://www.w3.org/2000/svg" x="0" y="0" viewBox="0 0 200 200" xml:space="preserve"><style>.st0{fill:#8e5233}.st1{fill:#5d3521}.st2{fill:#e2b25c}</style><switch><g><path class="st0" d="M149.54 45.39h9v27h-9z"/><path d="M158.54 45.39h9v27h-9zM149.54 72.39h9v9h-9zM149.54 36.39h9v9h-9zM68.54 27.39h81v9h-81zM59.54 36.39h9v27h-9z"/><path class="st1" d="M77.54 45.39h54v9h-54zM77.54 63.39h54v9h-54zM68.54 81.39h54v9h-54zM68.54 99.39h54v9h-54zM59.54 117.39h54v9h-54z"/><path d="M104.54 135.39h9v18h-9zM113.54 153.39h18v18h-18zM122.54 144.39h9v9h-9zM131.54 117.39h9v27h-9zM140.54 54.39h9v63h-9zM41.54 108.39h9v27h-9zM32.54 135.39h72v9h-72zM32.54 144.39h9v18h-9zM41.54 162.39h72v9h-72z"/><path class="st0" d="M41.54 153.39h72v9h-72zM113.54 144.39h9v9h-9z"/><path d="M50.54 63.39h9v45h-9z"/><path class="st2" d="M41.54 144.39h63v9h-63zM113.54 108.39h18v36h-18z"/><path class="st2" d="M131.54 108.39h9v9h-9zM122.54 72.39h18v36h-18zM131.54 36.39h18v18h-18zM131.54 54.39h9v18h-9zM50.54 108.39h9v27h-9z"/><path class="st2" d="M59.54 63.39h9v54h-9zM68.54 36.39h9v45h-9zM77.54 36.39h54v9h-54zM77.54 54.39h54v9h-54zM77.54 72.39h45v9h-45zM68.54 90.39h54v9h-54zM68.54 108.39h45v9h-45zM59.54 126.39h54v9h-54z"/></g></switch></svg>