<svg version="1.1" id="Layer_1" xmlns="http://www.w3.org/2000/svg" x="0" y="0" viewBox="0 0 200 200" xml:space="preserve"><style>.st0{fill:maroon}.st1{fill:#fe7b03}.st2{fill:#fff1a3}</style><switch><g><path class="st0" d="M73.04 40.89h45v9h-45zM55.04 49.89h81v9h-81zM46.04 58.89h99v9h-99zM46.04 67.89h27v9h-27zM37.04 76.89h9v9h-9z"/><path class="st1" d="M37.04 85.89h18v9h-18zM46.04 76.89h36v9h-36zM73.04 67.89h72v9h-72zM145.04 76.89h9v9h-9zM37.04 103.89h18v9h-18zM46.04 112.89h36v9h-36zM73.04 121.89h72v9h-72zM145.04 112.89h9v9h-9zM154.04 85.89h9v27h-9z"/><path class="st2" d="M37.04 94.89h18v9h-18z"/><path class="st2" d="M55.04 85.89h27v27h-27zM82.04 76.89h63v45h-63z"/><path class="st2" d="M145.04 85.89h9v27h-9z"/><path d="M46.04 121.89h27v9h-27zM73.04 130.89h72v9h-72z"/><path class="st0" d="M118.04 139.89h18v9h-18zM46.04 130.89h9v9h-9z"/><path class="st0" d="M55.04 130.89h18v18h-18zM73.04 139.89h45v18h-45z"/><path d="M64.04 31.89h63v9h-63zM118.04 40.89h27v9h-27zM136.04 49.89h18v9h-18zM145.04 58.89h9v18h-9zM46.04 40.89h27v9h-27zM37.04 49.89h18v9h-18zM37.04 58.89h9v18h-9zM28.04 67.89h9v54h-9zM37.04 112.89h9v36h-9zM46.04 139.89h9v18h-9z"/><path d="M55.04 148.89h18v9h-18zM118.04 148.89h27v9h-27zM136.04 139.89h18v9h-18zM145.04 121.89h9v18h-9zM64.04 157.89h63v9h-63zM154.04 67.89h9v18h-9zM154.04 112.89h9v18h-9zM163.04 76.89h9v45h-9z"/></g></switch></svg>