<svg version="1.1" id="Layer_1" xmlns="http://www.w3.org/2000/svg" x="0" y="0" viewBox="0 0 200 200" xml:space="preserve"><style>.st0{fill:#fd2200}.st1{fill:#840000}.st2{fill:#ffc3c3}</style><switch><g><path class="st0" d="M82.04 31.89h18v9h-18zM64.04 40.89h18v9h-18zM55.04 49.89h9v9h-9zM46.04 58.89h9v18h-9zM55.04 76.89h9v9h-9z"/><path class="st1" d="M100.04 31.89h18v9h-18zM118.04 40.89h18v9h-18zM136.04 49.89h9v9h-9zM55.04 67.89h18v9h-18zM55.04 85.89h9v9h-9z"/><path class="st2" d="M82.04 40.89h36v9h-36zM118.04 49.89h18v9h-18zM136.04 58.89h9v9h-9zM64.04 49.89h18v9h-18zM55.04 58.89h9v9h-9zM64.04 76.89h9v9h-9zM73.04 67.89h54v9h-54zM127.04 76.89h9v9h-9z"/><path class="st1" d="M73.04 85.89h9v9h-9zM91.04 85.89h9v9h-9z"/><path class="st0" d="M82.04 85.89h9v9h-9zM73.04 94.89h9v9h-9zM64.04 103.89h9v9h-9z"/><path class="st1" d="M64.04 112.89h9v9h-9zM82.04 112.89h36v9h-36z"/><path class="st0" d="M82.04 121.89h9v27h-9z"/><path class="st1" d="M91.04 139.89h27v9h-27z"/><path class="st0" d="M73.04 148.89h9v9h-9z"/><path class="st1" d="M64.04 157.89h18v9h-18z"/><path class="st2" d="M82.04 148.89h36v9h-36zM91.04 121.89h18v9h-18zM118.04 103.89h9v9h-9zM73.04 103.89h9v9h-9zM82.04 94.89h36v9h-36z"/><path d="M64.04 58.89h18v9h-18zM82.04 49.89h36v9h-36zM118.04 58.89h18v9h-18zM127.04 67.89h27v9h-27zM145.04 58.89h9v9h-9zM136.04 76.89h9v18h-9zM118.04 148.89h9v9h-9zM82.04 157.89h54v9h-54zM91.04 130.89h27v9h-27zM109.04 121.89h9v9h-9zM118.04 112.89h18v9h-18zM127.04 103.89h9v9h-9zM82.04 103.89h36v9h-36zM73.04 112.89h9v9h-9zM64.04 85.89h9v9h-9zM73.04 76.89h54v9h-54z"/><path d="M100.04 85.89h36v9h-36zM118.04 94.89h9v9h-9z"/><path class="st1" d="M82.04 58.89h36v9h-36z"/><path d="M73.04 22.89h54v9h-54zM118.04 31.89h27v9h-27zM55.04 31.89h27v9h-27zM46.04 40.89h18v9h-18zM37.04 49.89h18v9h-18zM136.04 40.89h18v9h-18zM145.04 49.89h18v9h-18zM154.04 58.89h9v27h-9zM145.04 76.89h9v27h-9z"/><path d="M127.04 94.89h18v9h-18zM136.04 103.89h9v27h-9z"/><path d="M118.04 121.89h18v9h-18zM118.04 130.89h9v18h-9zM127.04 139.89h9v18h-9z"/><path d="M136.04 148.89h9v27h-9zM55.04 166.89h81v9h-81zM55.04 148.89h9v18h-9zM64.04 139.89h9v18h-9zM73.04 121.89h9v27h-9zM55.04 121.89h18v9h-18zM46.04 94.89h27v9h-27zM55.04 103.89h9v18h-9zM46.04 76.89h9v18h-9zM37.04 58.89h9v27h-9z"/></g></switch></svg>