<svg version="1.1" id="Layer_1" xmlns="http://www.w3.org/2000/svg" x="0" y="0" viewBox="0 0 200 200" xml:space="preserve"><style>.st0{fill:#feff54}.st1{fill:#fc7601}.st2{fill:#a10206}</style><switch><g><path d="M86.54 40.89h9v9h-9zM95.54 49.89h9v9h-9zM77.54 49.89h9v9h-9zM86.54 58.89h9v9h-9zM104.54 58.89h9v9h-9zM113.54 67.89h9v18h-9zM77.54 67.89h9v18h-9zM86.54 76.89h9v9h-9zM68.54 85.89h9v9h-9zM77.54 94.89h9v18h-9zM68.54 103.89h9v9h-9zM59.54 112.89h9v9h-9zM68.54 121.89h9v9h-9zM77.54 130.89h9v9h-9zM86.54 139.89h27v9h-27zM113.54 121.89h9v18h-9zM122.54 112.89h9v18h-9zM131.54 103.89h9v9h-9zM104.54 94.89h27v9h-27zM104.54 85.89h9v9h-9z"/><path class="st0" d="M86.54 49.89h9v9h-9zM95.54 58.89h9v9h-9zM104.54 67.89h9v9h-9zM95.54 76.89h9v9h-9zM86.54 85.89h9v18h-9zM122.54 103.89h9v9h-9zM113.54 112.89h9v9h-9zM77.54 121.89h36v9h-36zM68.54 112.89h9v9h-9zM86.54 112.89h9v9h-9zM95.54 94.89h9v27h-9zM95.54 130.89h9v9h-9z"/><path class="st1" d="M77.54 112.89h9v9h-9zM86.54 103.89h9v9h-9zM77.54 85.89h9v9h-9zM86.54 67.89h18v9h-18zM104.54 76.89h9v9h-9zM95.54 85.89h9v9h-9zM104.54 103.89h18v9h-18zM104.54 112.89h9v9h-9zM104.54 130.89h9v9h-9zM86.54 130.89h9v9h-9z"/><path class="st2" d="M77.54 40.89h9v9h-9zM77.54 58.89h9v9h-9zM59.54 49.89h18v36h-18zM68.54 94.89h9v9h-9zM59.54 85.89h9v27h-9zM77.54 148.89h45v9h-45zM77.54 139.89h9v9h-9zM113.54 139.89h9v9h-9zM95.54 40.89h27v9h-27zM104.54 49.89h36v9h-36zM113.54 58.89h36v9h-36zM122.54 67.89h27v18h-27z"/><path class="st2" d="M149.54 76.89h9v9h-9zM113.54 85.89h45v9h-45zM50.54 58.89h9v18h-9zM41.54 76.89h18v45h-18zM50.54 121.89h18v18h-18zM68.54 130.89h9v9h-9zM59.54 139.89h18v9h-18zM122.54 130.89h18v18h-18z"/><path class="st2" d="M140.54 130.89h9v9h-9zM131.54 121.89h18v9h-18zM140.54 94.89h18v27h-18zM131.54 112.89h9v9h-9zM131.54 94.89h9v9h-9z"/><path d="M68.54 157.89h63v9h-63zM122.54 148.89h27v9h-27zM140.54 139.89h18v9h-18zM149.54 121.89h9v18h-9zM50.54 148.89h27v9h-27zM41.54 139.89h18v9h-18zM41.54 121.89h9v18h-9zM149.54 58.89h9v18h-9zM41.54 58.89h9v18h-9zM41.54 49.89h18v9h-18zM50.54 40.89h27v9h-27zM122.54 40.89h27v9h-27zM140.54 49.89h18v9h-18zM68.54 31.89h63v9h-63zM158.54 67.89h9v63h-9zM32.54 67.89h9v63h-9z"/></g></switch></svg>