<svg version="1.1" id="Layer_1" xmlns="http://www.w3.org/2000/svg" x="0" y="0" viewBox="0 0 200 200" xml:space="preserve"><style>.st0{fill:#a10206}.st1{fill:#fc7601}.st2{fill:#feff54}</style><switch><g><path class="st0" d="M77.54 36.39h18v18h-18zM77.54 54.39h9v9h-9zM95.54 36.39h9v9h-9zM113.54 36.39h9v9h-9zM122.54 45.39h18v18h-18zM113.54 54.39h9v9h-9zM122.54 63.39h9v9h-9z"/><path class="st0" d="M140.54 54.39h9v18h-9zM59.54 45.39h18v9h-18zM50.54 54.39h18v9h-18zM50.54 63.39h9v9h-9zM41.54 72.39h9v45h-9zM149.54 72.39h9v45h-9zM50.54 117.39h9v18h-9zM59.54 135.39h9v9h-9zM68.54 144.39h9v9h-9zM68.54 126.39h9v9h-9zM140.54 117.39h18v18h-18zM131.54 135.39h18v9h-18zM77.54 135.39h45v9h-45z"/><path d="M68.54 135.39h9v9h-9zM59.54 117.39h9v18h-9zM50.54 72.39h9v45h-9zM59.54 63.39h9v9h-9zM68.54 54.39h9v9h-9zM68.54 72.39h9v9h-9zM77.54 63.39h9v9h-9zM86.54 54.39h9v9h-9zM95.54 45.39h9v9h-9zM104.54 36.39h9v9h-9zM113.54 45.39h9v9h-9zM104.54 54.39h9v9h-9zM113.54 63.39h9v18h-9zM122.54 72.39h9v9h-9zM131.54 63.39h9v9h-9zM140.54 72.39h9v45h-9zM131.54 81.39h9v9h-9zM131.54 117.39h9v18h-9zM122.54 135.39h9v9h-9zM68.54 27.39h63v9h-63zM68.54 162.39h63v9h-63zM122.54 36.39h27v9h-27zM140.54 45.39h18v9h-18zM149.54 54.39h9v18h-9zM50.54 36.39h27v9h-27zM41.54 45.39h18v9h-18zM41.54 54.39h9v18h-9zM32.54 63.39h9v63h-9zM41.54 117.39h9v27h-9zM50.54 135.39h9v18h-9z"/><path d="M59.54 144.39h9v18h-9zM68.54 153.39h81v9h-81zM77.54 144.39h81v9h-81zM149.54 135.39h18v9h-18zM158.54 63.39h9v72h-9z"/><path class="st1" d="M59.54 72.39h9v18h-9zM68.54 90.39h9v9h-9zM68.54 63.39h9v9h-9zM104.54 45.39h9v9h-9zM131.54 72.39h9v9h-9zM104.54 81.39h27v9h-27zM104.54 72.39h9v9h-9zM113.54 90.39h9v9h-9zM131.54 90.39h9v27h-9z"/><path class="st1" d="M122.54 99.39h9v36h-9zM113.54 126.39h9v9h-9zM77.54 72.39h9v18h-9zM86.54 63.39h9v18h-9zM95.54 54.39h9v18h-9z"/><path class="st2" d="M122.54 90.39h9v9h-9zM104.54 63.39h9v9h-9zM68.54 81.39h9v9h-9zM59.54 90.39h9v27h-9zM77.54 90.39h36v45h-36zM113.54 99.39h9v27h-9zM86.54 81.39h18v9h-18zM95.54 72.39h9v9h-9zM68.54 99.39h9v27h-9z"/></g></switch></svg>