<svg version="1.1" id="Layer_1" xmlns="http://www.w3.org/2000/svg" x="0" y="0" viewBox="0 0 200 200" xml:space="preserve"><style>.st0{fill:#7f1416}.st1{fill:#fff}.st2{fill:#ec2024}</style><switch><g><path class="st0" d="M36.72 82.37h9v36h-9zM45.72 118.37h9v18h-9zM45.72 64.37h9v18h-9zM54.72 55.37h9v9h-9zM63.72 46.37h18v9h-18zM54.72 136.37h9v9h-9zM63.72 145.37h18v9h-18z"/><path transform="rotate(-180 158.216 100.368)" class="st0" d="M153.72 82.37h9v36h-9z"/><path transform="rotate(-180 149.216 73.368)" class="st0" d="M144.72 64.37h9v18h-9z"/><path transform="rotate(-180 149.216 127.368)" class="st0" d="M144.72 118.37h9v18h-9z"/><path transform="rotate(-180 140.216 140.868)" class="st0" d="M135.72 136.37h9v9h-9z"/><path transform="rotate(-180 126.717 149.868)" class="st0" d="M117.72 145.37h18v9h-18z"/><path transform="rotate(-180 140.216 59.868)" class="st0" d="M135.72 55.37h9v9h-9z"/><path transform="rotate(-180 126.717 50.868)" class="st0" d="M117.72 46.37h18v9h-18z"/><path class="st0" d="M81.72 154.37h36v9h-36zM81.72 37.37h36v9h-36z"/><path d="M27.72 73.37h9v54h-9zM72.72 163.37h54v9h-54zM162.72 73.37h9v54h-9zM72.72 28.37h54v9h-54zM36.72 64.37h9v18h-9zM36.72 55.37h18v9h-18zM45.72 46.37h18v9h-18z"/><path d="M54.72 37.37h27v9h-27zM153.72 64.37h9v18h-9zM144.72 55.37h18v9h-18zM135.72 46.37h18v9h-18zM117.72 37.37h27v9h-27zM36.72 118.37h9v27h-9zM45.72 136.37h9v18h-9zM54.72 145.37h9v18h-9zM63.72 154.37h18v9h-18zM117.72 154.37h27v9h-27zM135.72 145.37h18v9h-18zM144.72 136.37h18v9h-18zM153.72 118.37h9v18h-9zM90.72 145.37h9v9h-9zM117.72 127.37h18v18h-18zM99.72 136.37h18v18h-18zM126.72 118.37h18v9h-18zM135.72 127.37h9v9h-9zM135.72 100.37h18v18h-18zM135.72 91.37h9v9h-9zM144.72 82.37h9v9h-9zM81.72 46.37h36v18h-36zM117.72 55.37h18v18h-18zM126.72 73.37h18v9h-18zM135.72 64.37h9v9h-9zM45.72 82.37h18v36h-18zM54.72 73.37h9v9h-9zM63.72 55.37h9v9h-9zM72.72 64.37h9v9h-9zM54.72 118.37h18v18h-18zM63.72 136.37h27v9h-27zM72.72 127.37h9v9h-9z"/><path class="st1" d="M63.72 64.37h9v9h-9zM72.72 55.37h9v9h-9zM81.72 73.37h18v36h-18zM72.72 82.37h9v18h-9zM99.72 82.37h9v18h-9z"/><path class="st2" d="M54.72 64.37h9v9h-9zM81.72 145.37h9v9h-9zM144.72 91.37h9v9h-9zM81.72 64.37h18v9h-18zM99.72 64.37h18v18h-18zM63.72 73.37h18v9h-18zM63.72 100.37h18v18h-18zM63.72 82.37h9v18h-9zM108.72 82.37h27v36h-27zM135.72 82.37h9v9h-9zM117.72 73.37h9v9h-9zM99.72 100.37h9v9h-9zM90.72 136.37h9v9h-9zM117.72 118.37h9v9h-9zM72.72 118.37h9v9h-9zM81.72 109.37h27v27h-27zM108.72 118.37h9v18h-9z"/></g></switch></svg>