<svg version="1.1" id="Layer_1" xmlns="http://www.w3.org/2000/svg" x="0" y="0" viewBox="0 0 200 200" xml:space="preserve"><style>.st0{fill:#800126}.st1{fill:#ef0200}.st2{fill:#ffcfcf}</style><switch><g><path class="st0" d="M77.54 40.89h45v9h-45zM59.54 49.89h81v9h-81zM50.54 58.89h99v9h-99zM41.54 76.89h9v18h-9zM41.54 112.89h9v9h-9z"/><path class="st1" d="M113.54 67.89h36v9h-36zM149.54 76.89h9v9h-9zM104.54 76.89h9v9h-9zM122.54 76.89h9v9h-9zM50.54 85.89h90v9h-90zM41.54 94.89h9v9h-9zM50.54 103.89h90v9h-90zM113.54 112.89h9v9h-9zM122.54 121.89h27v9h-27zM149.54 112.89h9v9h-9z"/><path class="st2" d="M113.54 76.89h9v9h-9zM140.54 85.89h18v27h-18zM131.54 76.89h18v9h-18zM122.54 112.89h27v9h-27zM50.54 94.89h90v9h-90z"/><path class="st0" d="M50.54 67.89h54v18h-54zM104.54 67.89h9v9h-9z"/><path d="M41.54 103.89h9v9h-9zM50.54 112.89h63v9h-63zM113.54 121.89h9v9h-9zM122.54 130.89h27v9h-27z"/><path class="st0" d="M50.54 121.89h63v18h-63zM113.54 130.89h9v9h-9zM59.54 139.89h81v9h-81zM77.54 148.89h45v9h-45z"/><path d="M32.54 67.89h9v63h-9zM41.54 121.89h9v27h-9zM50.54 139.89h9v18h-9z"/><path d="M59.54 148.89h18v9h-18zM68.54 157.89h63v9h-63zM122.54 148.89h27v9h-27zM140.54 139.89h9v9h-9zM41.54 49.89h9v27h-9zM50.54 40.89h9v18h-9z"/><path d="M59.54 40.89h18v9h-18zM68.54 31.89h63v9h-63zM122.54 40.89h27v9h-27zM140.54 49.89h18v9h-18zM149.54 58.89h9v18h-9zM158.54 67.89h9v63h-9zM149.54 121.89h9v27h-9z"/></g></switch></svg>