<svg version="1.1" id="Layer_1" xmlns="http://www.w3.org/2000/svg" x="0" y="0" viewBox="0 0 200 200" xml:space="preserve"><style>.st0{fill:#dfd7c8}.st1{fill:#7f7368}</style><switch><g><path d="M86.54 36.39h9v9h-9zM104.54 36.39h9v9h-9zM77.54 45.39h9v18h-9zM113.54 45.39h9v18h-9zM50.54 36.39h9v9h-9zM140.54 36.39h9v9h-9zM59.54 27.39h81v9h-81zM68.54 162.39h27v9h-27zM104.54 162.39h27v9h-27zM104.54 153.39h9v9h-9zM86.54 153.39h9v9h-9zM86.54 144.39h27v9h-27zM86.54 63.39h9v81h-9zM104.54 63.39h9v81h-9zM50.54 117.39h9v9h-9zM41.54 45.39h9v72h-9zM149.54 45.39h9v72h-9z"/><path d="M59.54 63.39h9v99h-9zM131.54 63.39h9v99h-9zM140.54 117.39h9v9h-9z"/><path class="st0" d="M113.54 63.39h18v99h-18zM68.54 63.39h18v99h-18zM50.54 45.39h27v18h-27zM59.54 36.39h27v9h-27zM113.54 36.39h27v9h-27zM122.54 45.39h27v18h-27zM140.54 63.39h9v54h-9zM50.54 63.39h9v54h-9z"/><path class="st1" d="M86.54 45.39h27v18h-27zM95.54 36.39h9v9h-9zM95.54 63.39h9v81h-9z"/></g></switch></svg>