<svg version="1.1" id="Layer_1" xmlns="http://www.w3.org/2000/svg" x="0" y="0" viewBox="0 0 200 200" xml:space="preserve"><style>.st0{fill:#021983}.st1{fill:#013fdd}.st2{fill:#90fff6}</style><switch><g><path class="st0" d="M37.04 76.89h9v45h-9zM46.04 112.89h9v27h-9zM55.04 139.89h18v9h-18zM46.04 58.89h9v18h-9z"/><path class="st0" d="M55.04 49.89h9v18h-9zM64.04 49.89h9v9h-9zM73.04 139.89h45v18h-45z"/><path class="st1" d="M46.04 76.89h9v36h-9zM55.04 112.89h27v9h-27z"/><path class="st1" d="M55.04 85.89h27v9h-27zM82.04 130.89h9v9h-9zM64.04 58.89h9v9h-9zM82.04 49.89h27v27h-27zM73.04 49.89h9v18h-9zM109.04 67.89h27v18h-27zM109.04 58.89h9v9h-9z"/><path class="st2" d="M55.04 67.89h27v9h-27zM82.04 76.89h27v9h-27zM55.04 121.89h27v9h-27zM82.04 112.89h27v9h-27zM109.04 85.89h27v27h-27z"/><path class="st2" d="M136.04 94.89h27v9h-27zM55.04 94.89h54v9h-54z"/><path class="st0" d="M136.04 112.89h18v9h-18zM109.04 121.89h36v18h-36zM91.04 130.89h18v9h-18zM118.04 139.89h18v9h-18zM136.04 76.89h18v18h-18zM73.04 40.89h36v9h-36zM109.04 49.89h18v9h-18zM118.04 58.89h27v9h-27zM136.04 67.89h9v9h-9z"/><path d="M28.04 67.89h9v63h-9zM37.04 121.89h9v27h-9zM46.04 139.89h9v18h-9z"/><path d="M55.04 148.89h18v9h-18zM64.04 157.89h63v9h-63zM118.04 148.89h27v9h-27zM136.04 139.89h18v9h-18zM145.04 121.89h9v18h-9zM154.04 103.89h9v27h-9zM136.04 103.89h18v9h-18zM109.04 112.89h27v9h-27zM55.04 130.89h27v9h-27zM82.04 121.89h27v9h-27zM55.04 103.89h54v9h-54zM82.04 85.89h27v9h-27zM55.04 76.89h27v9h-27zM163.04 85.89h9v36h-9zM154.04 67.89h9v27h-9zM145.04 49.89h9v27h-9z"/><path d="M127.04 49.89h18v9h-18zM109.04 40.89h27v9h-27zM37.04 58.89h9v18h-9zM37.04 49.89h18v9h-18zM46.04 40.89h27v9h-27zM64.04 31.89h54v9h-54z"/></g></switch></svg>