<svg version="1.1" id="Layer_1" xmlns="http://www.w3.org/2000/svg" x="0" y="0" viewBox="0 0 200 200" xml:space="preserve"><style>.st0{fill:#6c014f}.st1{fill:#feafe8}.st2{fill:#ce0094}</style><switch><g><path class="st0" d="M77.54 40.89h45v9h-45zM122.54 49.89h18v9h-18zM59.54 49.89h18v9h-18zM50.54 58.89h18v9h-18zM50.54 67.89h9v9h-9zM41.54 76.89h9v45h-9zM149.54 76.89h9v45h-9zM50.54 121.89h9v18h-9z"/><path class="st0" d="M59.54 130.89h9v18h-9zM68.54 139.89h9v9h-9zM77.54 139.89h9v18h-9zM86.54 130.89h36v27h-36zM104.54 121.89h18v9h-18zM113.54 112.89h9v9h-9zM122.54 103.89h9v45h-9z"/><path class="st1" d="M131.54 58.89h9v81h-9zM104.54 103.89h9v9h-9zM104.54 85.89h9v9h-9zM95.54 67.89h9v9h-9zM104.54 58.89h9v9h-9zM113.54 67.89h9v9h-9zM86.54 103.89h9v9h-9zM68.54 103.89h9v9h-9zM50.54 103.89h9v9h-9z"/><path d="M50.54 112.89h9v9h-9zM68.54 112.89h9v9h-9zM86.54 112.89h9v9h-9zM104.54 112.89h9v9h-9zM104.54 94.89h9v9h-9zM104.54 67.89h9v9h-9zM113.54 76.89h9v9h-9zM95.54 76.89h9v9h-9zM140.54 58.89h9v72h-9zM50.54 148.89h27v9h-27zM41.54 139.89h18v9h-18zM41.54 121.89h9v18h-9zM32.54 67.89h9v63h-9zM41.54 49.89h9v27h-9zM50.54 40.89h9v18h-9z"/><path d="M59.54 40.89h18v9h-18zM122.54 148.89h18v9h-18zM131.54 139.89h18v9h-18zM140.54 130.89h18v9h-18zM149.54 121.89h18v9h-18zM68.54 157.89h63v9h-63zM158.54 67.89h9v54h-9zM149.54 49.89h9v27h-9zM140.54 40.89h9v18h-9z"/><path d="M122.54 40.89h18v9h-18zM68.54 31.89h63v9h-63z"/><path class="st2" d="M104.54 76.89h9v9h-9zM68.54 121.89h18v18h-18zM86.54 121.89h18v9h-18zM95.54 103.89h9v18h-9zM77.54 103.89h9v18h-9zM59.54 103.89h9v27h-9zM50.54 76.89h9v27h-9zM95.54 85.89h9v18h-9zM113.54 85.89h18v18h-18zM113.54 103.89h9v9h-9zM122.54 58.89h9v27h-9zM113.54 49.89h9v18h-9zM77.54 49.89h27v18h-27zM104.54 49.89h9v9h-9zM68.54 58.89h9v9h-9z"/><path class="st2" d="M59.54 67.89h36v36h-36z"/></g></switch></svg>