<svg version="1.1" id="Layer_1" xmlns="http://www.w3.org/2000/svg" x="0" y="0" viewBox="0 0 200 200" xml:space="preserve"><style>.st0{fill:#fe004b}.st1{fill:#69005b}.st2{fill:#ff8e92}</style><switch><g><path class="st0" d="M77.54 58.89h9v9h-9z"/><path class="st1" d="M86.54 58.89h9v9h-9zM68.54 67.89h18v9h-18zM68.54 76.89h9v9h-9zM59.54 85.89h9v9h-9z"/><path class="st0" d="M59.54 76.89h9v9h-9zM59.54 103.89h9v9h-9z"/><path class="st1" d="M59.54 112.89h18v9h-18zM68.54 121.89h18v9h-18zM77.54 130.89h18v9h-18z"/><path class="st0" d="M104.54 58.89h9v9h-9z"/><path class="st1" d="M113.54 58.89h9v18h-9zM122.54 67.89h9v18h-9z"/><path class="st1" d="M131.54 76.89h9v18h-9zM131.54 103.89h9v18h-9zM122.54 121.89h9v9h-9z"/><path class="st0" d="M122.54 112.89h9v9h-9zM113.54 121.89h9v9h-9z"/><path class="st1" d="M104.54 130.89h18v9h-18z"/><path d="M95.54 58.89h9v9h-9zM86.54 67.89h27v9h-27zM95.54 130.89h9v9h-9zM86.54 121.89h27v9h-27zM77.54 112.89h9v9h-9zM113.54 112.89h9v9h-9zM59.54 94.89h9v9h-9zM68.54 85.89h9v27h-9zM131.54 94.89h9v9h-9z"/><path d="M122.54 85.89h9v27h-9zM77.54 76.89h9v9h-9zM113.54 76.89h9v9h-9z"/><path class="st1" d="M86.54 112.89h27v9h-27zM95.54 103.89h27v9h-27zM104.54 94.89h18v9h-18zM113.54 85.89h9v9h-9z"/><path class="st0" d="M104.54 76.89h9v18h-9zM86.54 76.89h18v9h-18zM77.54 85.89h18v9h-18zM77.54 94.89h9v18h-9zM86.54 103.89h9v9h-9zM95.54 94.89h9v9h-9z"/><path class="st2" d="M95.54 85.89h9v9h-9zM86.54 94.89h9v9h-9z"/><path d="M68.54 49.89h63v9h-63zM68.54 139.89h63v9h-63zM140.54 67.89h9v63h-9zM50.54 67.89h9v63h-9z"/><path d="M59.54 121.89h9v18h-9zM68.54 130.89h9v9h-9zM122.54 130.89h18v9h-18zM131.54 121.89h9v9h-9zM59.54 58.89h9v18h-9zM68.54 58.89h9v9h-9zM122.54 58.89h18v9h-18zM131.54 67.89h9v9h-9z"/></g></switch></svg>