<svg version="1.1" id="Layer_1" xmlns="http://www.w3.org/2000/svg" x="0" y="0" viewBox="0 0 200 200" xml:space="preserve"><style>.st0{fill:#fe004b}.st1{fill:#69005b}.st2{fill:#ff8e92}</style><switch><g><path class="st0" d="M37.04 108.39h9v18h-9zM37.04 72.39h9v9h-9zM46.04 63.39h9v9h-9zM55.04 54.39h9v9h-9zM64.04 45.39h9v9h-9zM73.04 36.39h9v9h-9zM109.04 36.39h18v9h-18z"/><path class="st1" d="M46.04 72.39h18v18h-18z"/><path class="st1" d="M37.04 81.39h9v9h-9zM64.04 54.39h9v27h-9zM55.04 63.39h9v9h-9zM73.04 45.39h9v27h-9zM82.04 36.39h9v27h-9zM109.04 45.39h27v18h-27zM118.04 63.39h36v9h-36z"/><path class="st1" d="M136.04 54.39h9v9h-9zM127.04 72.39h36v9h-36zM136.04 81.39h27v9h-27z"/><path d="M37.04 90.39h27v18h-27zM91.04 36.39h18v27h-18zM82.04 63.39h36v9h-36zM73.04 72.39h9v9h-9zM118.04 72.39h9v9h-9zM136.04 90.39h27v18h-27z"/><path d="M127.04 81.39h9v36h-9zM64.04 81.39h9v36h-9zM73.04 117.39h9v9h-9zM118.04 117.39h9v9h-9zM82.04 126.39h36v9h-36zM91.04 135.39h18v27h-18z"/><path class="st0" d="M118.04 126.39h9v9h-9zM127.04 117.39h9v9h-9zM136.04 108.39h9v9h-9zM82.04 72.39h9v18h-9zM91.04 72.39h9v9h-9zM100.04 72.39h18v18h-18zM73.04 81.39h9v18h-9zM73.04 99.39h18v18h-18zM91.04 90.39h9v9h-9z"/><path class="st2" d="M91.04 81.39h9v9h-9zM82.04 90.39h9v9h-9z"/><path class="st1" d="M91.04 99.39h27v27h-27zM100.04 90.39h18v9h-18zM118.04 81.39h9v36h-9zM82.04 117.39h9v9h-9zM73.04 135.39h18v27h-18zM109.04 135.39h18v27h-18zM145.04 108.39h18v18h-18zM46.04 108.39h18v27h-18zM64.04 126.39h18v9h-18zM64.04 117.39h9v9h-9zM55.04 135.39h18v9h-18zM64.04 144.39h9v9h-9zM127.04 126.39h18v18h-18zM136.04 117.39h9v9h-9z"/><path class="st1" d="M145.04 126.39h9v9h-9zM127.04 144.39h9v9h-9z"/><path d="M64.04 27.39h72v9h-72zM127.04 36.39h18v9h-18zM136.04 45.39h18v9h-18zM145.04 54.39h18v9h-18zM154.04 63.39h9v9h-9zM55.04 36.39h18v9h-18zM46.04 45.39h18v9h-18zM37.04 54.39h18v9h-18zM37.04 63.39h9v9h-9zM28.04 63.39h9v72h-9zM163.04 63.39h9v72h-9zM37.04 126.39h9v18h-9zM46.04 135.39h9v18h-9z"/><path d="M55.04 144.39h9v18h-9zM64.04 153.39h9v9h-9zM127.04 153.39h9v9h-9z"/><path d="M136.04 144.39h9v18h-9zM145.04 135.39h9v18h-9zM154.04 126.39h9v18h-9zM64.04 162.39h72v9h-72z"/></g></switch></svg>