<svg version="1.1" id="Layer_1" xmlns="http://www.w3.org/2000/svg" x="0" y="0" viewBox="0 0 200 200" xml:space="preserve"><style>.st0{fill:#fe004b}.st1{fill:#680001}.st2{fill:#ff8e92}</style><switch><g><path class="st0" d="M59.54 85.89h9v18h-9z"/><path class="st0" d="M41.54 85.89h18v9h-18zM41.54 76.89h9v9h-9zM59.54 58.89h9v9h-9z"/><path class="st1" d="M41.54 94.89h18v18h-18zM41.54 112.89h9v9h-9z"/><path class="st1" d="M59.54 103.89h27v18h-27zM77.54 121.89h9v9h-9zM59.54 121.89h9v18h-9zM68.54 76.89h18v27h-18zM77.54 67.89h9v9h-9zM86.54 85.89h27v9h-27zM86.54 103.89h27v9h-27z"/><path class="st2" d="M59.54 67.89h9v18h-9z"/><path transform="rotate(-180 136.042 94.89)" class="st0" d="M131.54 85.89h9v18h-9z"/><path transform="rotate(-180 149.542 90.39)" class="st0" d="M140.54 85.89h18v9h-18z"/><path transform="rotate(-180 154.042 81.39)" class="st0" d="M149.54 76.89h9v9h-9z"/><path transform="rotate(-180 136.042 63.39)" class="st0" d="M131.54 58.89h9v9h-9z"/><path transform="rotate(-180 149.542 103.89)" class="st1" d="M140.54 94.89h18v18h-18z"/><path transform="rotate(-180 154.042 117.39)" class="st1" d="M149.54 112.89h9v9h-9z"/><path transform="rotate(-180 127.042 112.89)" class="st1" d="M113.54 103.89h27v18h-27z"/><path transform="rotate(-180 118.042 126.39)" class="st1" d="M113.54 121.89h9v9h-9z"/><path transform="rotate(-180 136.042 130.89)" class="st1" d="M131.54 121.89h9v18h-9z"/><path transform="rotate(-180 122.542 90.39)" class="st1" d="M113.54 76.89h18v27h-18z"/><path transform="rotate(-180 118.042 72.39)" class="st1" d="M113.54 67.89h9v9h-9z"/><path transform="rotate(-180 136.042 76.89)" class="st2" d="M131.54 67.89h9v18h-9z"/><path d="M86.54 94.89h27v9h-27zM86.54 76.89h27v9h-27zM86.54 112.89h27v9h-27zM32.54 67.89h9v63h-9zM158.54 67.89h9v63h-9zM86.54 121.89h9v18h-9zM104.54 121.89h9v18h-9zM86.54 58.89h9v18h-9zM104.54 58.89h9v18h-9zM113.54 58.89h9v9h-9zM77.54 58.89h9v9h-9zM77.54 130.89h9v9h-9zM113.54 130.89h9v9h-9zM122.54 121.89h9v27h-9zM68.54 121.89h9v27h-9zM68.54 49.89h9v27h-9zM122.54 49.89h9v27h-9z"/><path d="M131.54 49.89h9v9h-9zM59.54 49.89h9v9h-9zM59.54 139.89h9v9h-9zM131.54 139.89h9v9h-9zM149.54 121.89h9v18h-9zM149.54 58.89h9v18h-9zM41.54 58.89h9v18h-9zM41.54 121.89h9v18h-9z"/><path d="M50.54 49.89h9v36h-9zM50.54 112.89h9v36h-9zM140.54 112.89h9v36h-9zM140.54 49.89h9v36h-9z"/></g></switch></svg>