<svg version="1.1" id="Layer_1" xmlns="http://www.w3.org/2000/svg" x="0" y="0" viewBox="0 0 200 200" xml:space="preserve"><style>.st0{fill:#7b1405}.st1{fill:#a92f22}</style><switch><g><path d="M68.54 162.39h27v9h-27zM59.54 63.39h9v99h-9z"/><path class="st0" d="M95.54 36.39h9v108h-9zM50.54 99.39h9v18h-9z"/><path class="st1" d="M50.54 45.39h18v18h-18zM59.54 36.39h9v9h-9zM50.54 63.39h9v36h-9zM77.54 36.39h9v27h-9z"/><path class="st0" d="M68.54 63.39h9v9h-9zM77.54 72.39h9v9h-9z"/><path d="M77.54 63.39h9v9h-9zM68.54 36.39h9v27h-9zM86.54 36.39h9v126h-9z"/><path class="st1" d="M68.54 72.39h9v9h-9zM68.54 81.39h18v81h-18z"/><path transform="rotate(-180 118.042 166.89)" d="M104.54 162.39h27v9h-27z"/><path transform="rotate(-180 136.042 112.89)" d="M131.54 63.39h9v99h-9z"/><path transform="rotate(-180 145.042 108.39)" class="st0" d="M140.54 99.39h9v18h-9z"/><path transform="rotate(-180 140.542 54.39)" class="st1" d="M131.54 45.39h18v18h-18z"/><path transform="rotate(-180 136.042 40.89)" class="st1" d="M131.54 36.39h9v9h-9z"/><path transform="rotate(-180 145.042 81.39)" class="st1" d="M140.54 63.39h9v36h-9z"/><path transform="rotate(-180 118.042 49.89)" class="st1" d="M113.54 36.39h9v27h-9z"/><path transform="rotate(-180 127.042 67.89)" class="st0" d="M122.54 63.39h9v9h-9z"/><path transform="rotate(-180 118.042 76.89)" class="st0" d="M113.54 72.39h9v9h-9z"/><path transform="rotate(-180 118.042 67.89)" d="M113.54 63.39h9v9h-9z"/><path transform="rotate(-180 127.042 49.89)" d="M122.54 36.39h9v27h-9z"/><path transform="rotate(-180 109.042 99.39)" d="M104.54 36.39h9v126h-9z"/><path transform="rotate(-180 127.042 76.89)" class="st1" d="M122.54 72.39h9v9h-9z"/><path transform="rotate(-180 122.542 121.89)" class="st1" d="M113.54 81.39h18v81h-18z"/><path d="M59.54 27.39h81v9h-81z"/><path d="M50.54 27.39h9v18h-9zM140.54 27.39h9v18h-9zM41.54 36.39h9v90h-9zM149.54 36.39h9v90h-9zM140.54 117.39h9v9h-9zM50.54 117.39h9v9h-9zM95.54 144.39h9v9h-9z"/></g></switch></svg>