<svg version="1.1" id="Layer_1" xmlns="http://www.w3.org/2000/svg" x="0" y="0" viewBox="0 0 200 200" xml:space="preserve"><style>.st0{fill:#fff}.st1{fill:#c5ff46}.st2{fill:#4c7201}</style><switch><g><path class="st0" d="M64.04 54.39h18v9h-18zM55.04 63.39h18v9h-18zM55.04 72.39h9v9h-9z"/><path d="M46.04 45.39h9v9h-9zM145.04 45.39h9v9h-9z"/><path class="st1" d="M91.04 63.39h54v9h-54z"/><path d="M55.04 36.39h90v9h-90zM55.04 153.39h90v9h-90z"/><path transform="rotate(90 158.542 99.39)" d="M113.54 94.89h90v9h-90z"/><path transform="rotate(90 41.542 99.39)" d="M-3.46 94.89h90v9h-90z"/><path d="M46.04 144.39h9v9h-9zM145.04 144.39h9v9h-9z"/><path class="st1" d="M73.04 81.39h72v9h-72zM55.04 99.39h90v9h-90zM55.04 117.39h18v9h-18zM82.04 117.39h63v9h-63zM82.04 135.39h54v9h-54z"/><path class="st2" d="M55.04 45.39h9v18h-9z"/><path class="st2" d="M46.04 54.39h9v90h-9z"/><path class="st2" d="M55.04 126.39h27v27h-27zM82.04 144.39h63v9h-63zM136.04 126.39h18v18h-18zM145.04 54.39h9v72h-9z"/><path class="st2" d="M82.04 45.39h63v18h-63zM64.04 45.39h18v9h-18zM73.04 63.39h18v18h-18zM91.04 72.39h54v9h-54zM64.04 72.39h9v9h-9zM55.04 81.39h18v18h-18zM73.04 117.39h9v9h-9zM55.04 108.39h90v9h-90zM82.04 126.39h54v9h-54zM73.04 90.39h72v9h-72z"/></g></switch></svg>