<svg version="1.1" id="Layer_1" xmlns="http://www.w3.org/2000/svg" x="0" y="0" viewBox="0 0 200 200" xml:space="preserve"><style>.st0{fill:#baffe4}.st1{fill:#028bda}.st2{fill:#1b02da}</style><switch><g><path class="st0" d="M50.54 49.89h27v9h-27zM50.54 58.89h9v18h-9zM68.54 67.89h9v9h-9z"/><path class="st1" d="M59.54 58.89h18v9h-18zM59.54 67.89h9v9h-9zM50.54 76.89h9v9h-9zM77.54 49.89h9v9h-9zM77.54 76.89h9v9h-9zM86.54 85.89h9v9h-9z"/><path class="st2" d="M77.54 67.89h9v9h-9zM86.54 76.89h9v9h-9zM68.54 76.89h9v9h-9zM77.54 85.89h9v9h-9z"/><path transform="rotate(90 145.042 63.39)" class="st0" d="M131.54 58.89h27v9h-27z"/><path transform="rotate(90 131.542 54.39)" class="st0" d="M127.04 45.39h9v18h-9z"/><path transform="rotate(90 127.042 72.39)" class="st0" d="M122.54 67.89h9v9h-9z"/><path transform="rotate(90 136.042 67.89)" class="st1" d="M127.04 63.39h18v9h-18z"/><path transform="rotate(90 127.042 63.39)" class="st1" d="M122.54 58.89h9v9h-9z"/><path transform="rotate(90 118.042 54.39)" class="st1" d="M113.54 49.89h9v9h-9z"/><path transform="rotate(90 145.042 81.39)" class="st1" d="M140.54 76.89h9v9h-9z"/><path transform="rotate(90 118.042 81.39)" class="st1" d="M113.54 76.89h9v9h-9z"/><path transform="rotate(90 109.042 90.39)" class="st1" d="M104.54 85.89h9v9h-9z"/><path transform="rotate(90 127.042 81.39)" class="st2" d="M122.54 76.89h9v9h-9z"/><path transform="rotate(90 118.042 90.39)" class="st2" d="M113.54 85.89h9v9h-9z"/><path transform="rotate(90 118.042 72.39)" class="st2" d="M113.54 67.89h9v9h-9z"/><path transform="rotate(90 109.042 81.39)" class="st2" d="M104.54 76.89h9v9h-9z"/><path transform="rotate(-180 136.042 144.39)" class="st0" d="M122.54 139.89h27v9h-27z"/><path transform="rotate(-180 145.042 130.89)" class="st0" d="M140.54 121.89h9v18h-9z"/><path transform="rotate(-180 127.042 126.39)" class="st0" d="M122.54 121.89h9v9h-9z"/><path transform="rotate(-180 131.542 135.39)" class="st1" d="M122.54 130.89h18v9h-18z"/><path transform="rotate(-180 136.042 126.39)" class="st1" d="M131.54 121.89h9v9h-9z"/><path transform="rotate(-180 145.042 117.39)" class="st1" d="M140.54 112.89h9v9h-9z"/><path transform="rotate(-180 118.042 144.39)" class="st1" d="M113.54 139.89h9v9h-9z"/><path transform="rotate(-180 118.042 117.39)" class="st1" d="M113.54 112.89h9v9h-9z"/><path transform="rotate(-180 109.042 108.39)" class="st1" d="M104.54 103.89h9v9h-9z"/><path transform="rotate(-180 118.042 126.39)" class="st2" d="M113.54 121.89h9v9h-9z"/><path transform="rotate(-180 109.042 117.39)" class="st2" d="M104.54 112.89h9v9h-9z"/><path transform="rotate(-180 127.042 117.39)" class="st2" d="M122.54 112.89h9v9h-9z"/><path transform="rotate(-180 118.042 108.39)" class="st2" d="M113.54 103.89h9v9h-9z"/><path transform="rotate(-90 55.042 135.39)" class="st0" d="M41.54 130.89h27v9h-27z"/><path transform="rotate(-90 68.542 144.39)" class="st0" d="M64.04 135.39h9v18h-9z"/><path transform="rotate(-90 73.042 126.39)" class="st0" d="M68.54 121.89h9v9h-9z"/><path transform="rotate(-90 64.042 130.89)" class="st1" d="M55.04 126.39h18v9h-18z"/><path transform="rotate(-90 73.042 135.39)" class="st1" d="M68.54 130.89h9v9h-9z"/><path transform="rotate(-90 82.042 144.39)" class="st1" d="M77.54 139.89h9v9h-9z"/><path transform="rotate(-90 55.042 117.39)" class="st1" d="M50.54 112.89h9v9h-9z"/><path transform="rotate(-90 82.042 117.39)" class="st1" d="M77.54 112.89h9v9h-9z"/><path transform="rotate(-90 91.042 108.39)" class="st1" d="M86.54 103.89h9v9h-9z"/><path transform="rotate(-90 73.042 117.39)" class="st2" d="M68.54 112.89h9v9h-9z"/><path transform="rotate(-90 82.042 108.39)" class="st2" d="M77.54 103.89h9v9h-9z"/><path transform="rotate(-90 82.042 126.39)" class="st2" d="M77.54 121.89h9v9h-9z"/><path transform="rotate(-90 91.042 117.39)" class="st2" d="M86.54 112.89h9v9h-9z"/><path class="st2" d="M95.54 85.89h9v27h-9zM104.54 94.89h9v9h-9zM86.54 94.89h9v9h-9z"/><path d="M41.54 40.89h117v9h-117zM41.54 148.89h117v9h-117zM41.54 49.89h9v99h-9zM149.54 49.89h9v99h-9zM86.54 121.89h27v27h-27z"/><path d="M122.54 85.89h27v27h-27zM86.54 49.89h27v27h-27zM50.54 85.89h27v27h-27zM59.54 112.89h9v9h-9zM59.54 76.89h9v9h-9zM77.54 94.89h9v9h-9zM77.54 58.89h9v9h-9zM95.54 76.89h9v9h-9zM113.54 58.89h9v9h-9zM113.54 94.89h9v9h-9zM131.54 76.89h9v9h-9zM131.54 112.89h9v9h-9zM113.54 130.89h9v9h-9zM95.54 112.89h9v9h-9zM77.54 130.89h9v9h-9z"/></g></switch></svg>