<svg version="1.1" id="Layer_1" xmlns="http://www.w3.org/2000/svg" x="0" y="0" viewBox="0 0 200 200" xml:space="preserve"><style>.st0{fill:#d2064f}.st1{fill:#febdd5}.st2{fill:#fe70a3}.st3{fill:#2a1d2c}.st5{fill:#8d5b91}.st6{fill:#e4c5e7}</style><switch><g><path class="st0" d="M95.54 139.89h9v18h-9zM86.54 130.89h9v9h-9zM104.54 130.89h9v9h-9z"/><path class="st1" d="M95.54 121.89h9v18h-9zM104.54 112.89h9v18h-9zM86.54 112.89h9v18h-9zM77.54 103.89h9v18h-9zM113.54 103.89h9v18h-9z"/><path class="st2" d="M86.54 103.89h9v9h-9zM104.54 103.89h9v9h-9z"/><path d="M95.54 103.89h9v18h-9zM104.54 139.89h9v18h-9zM86.54 139.89h9v18h-9zM77.54 121.89h9v27h-9zM113.54 121.89h9v27h-9zM122.54 103.89h9v27h-9zM68.54 103.89h9v27h-9zM68.54 94.89h27v9h-27zM104.54 94.89h27v9h-27zM68.54 157.89h63v9h-63zM131.54 148.89h9v9h-9zM140.54 139.89h9v9h-9zM59.54 148.89h9v9h-9zM50.54 139.89h9v9h-9zM41.54 121.89h9v18h-9zM149.54 121.89h9v18h-9z"/><path class="st3" d="M41.54 112.89h18v9h-18zM50.54 121.89h9v18h-9z"/><path class="st3" d="M59.54 130.89h18v18h-18zM68.54 148.89h18v9h-18zM113.54 148.89h18v9h-18zM122.54 130.89h18v18h-18z"/><path class="st3" d="M140.54 121.89h9v18h-9z"/><path transform="rotate(-180 100.042 49.89)" class="st0" d="M95.54 40.89h9v18h-9z"/><path transform="rotate(-180 109.042 63.39)" class="st0" d="M104.54 58.89h9v9h-9z"/><path transform="rotate(-180 91.042 63.39)" class="st0" d="M86.54 58.89h9v9h-9z"/><path transform="rotate(-180 100.042 67.89)" class="st1" d="M95.54 58.89h9v18h-9z"/><path transform="rotate(-180 91.042 76.89)" class="st1" d="M86.54 67.89h9v18h-9z"/><path transform="rotate(-180 109.042 76.89)" class="st1" d="M104.54 67.89h9v18h-9z"/><path transform="rotate(-180 118.042 85.89)" class="st1" d="M113.54 76.89h9v18h-9z"/><path transform="rotate(-180 82.042 85.89)" class="st1" d="M77.54 76.89h9v18h-9z"/><path transform="rotate(-180 109.042 90.39)" class="st2" d="M104.54 85.89h9v9h-9z"/><path transform="rotate(-180 91.042 90.39)" class="st2" d="M86.54 85.89h9v9h-9z"/><path transform="rotate(-180 100.042 85.89)" d="M95.54 76.89h9v18h-9z"/><path transform="rotate(-180 91.042 49.89)" d="M86.54 40.89h9v18h-9z"/><path transform="rotate(-180 109.042 49.89)" d="M104.54 40.89h9v18h-9z"/><path transform="rotate(-180 118.042 63.39)" d="M113.54 49.89h9v27h-9z"/><path transform="rotate(-180 82.042 63.39)" d="M77.54 49.89h9v27h-9z"/><path transform="rotate(-180 73.042 81.39)" d="M68.54 67.89h9v27h-9z"/><path transform="rotate(-180 127.042 81.39)" d="M122.54 67.89h9v27h-9z"/><path transform="rotate(-180 100.042 36.39)" d="M68.54 31.89h63v9h-63z"/><path transform="rotate(-180 64.042 45.39)" d="M59.54 40.89h9v9h-9z"/><path transform="rotate(-180 55.042 54.39)" d="M50.54 49.89h9v9h-9z"/><path transform="rotate(-180 136.042 45.39)" d="M131.54 40.89h9v9h-9z"/><path transform="rotate(-180 145.042 54.39)" d="M140.54 49.89h9v9h-9z"/><path transform="rotate(-180 154.042 67.89)" d="M149.54 58.89h9v18h-9z"/><path transform="rotate(-180 46.042 67.89)" d="M41.54 58.89h9v18h-9z"/><path fill="#383838" d="M95.54 94.89h9v9h-9z"/><path d="M158.54 76.89h9v45h-9zM32.54 76.89h9v45h-9z"/><path class="st3" d="M122.54 40.89h9v9h-9zM131.54 49.89h9v9h-9zM140.54 58.89h9v18h-9zM140.54 103.89h18v18h-18zM149.54 76.89h9v27h-9zM131.54 121.89h9v9h-9z"/><path class="st5" d="M131.54 103.89h9v18h-9zM131.54 76.89h18v27h-18zM113.54 40.89h9v9h-9zM122.54 49.89h9v18h-9z"/><path class="st5" d="M131.54 58.89h9v18h-9zM77.54 40.89h9v9h-9zM68.54 58.89h9v9h-9zM59.54 67.89h9v63h-9z"/><path class="st5" d="M41.54 94.89h18v18h-18zM50.54 85.89h9v9h-9z"/><path class="st6" d="M41.54 76.89h9v18h-9zM50.54 58.89h9v27h-9z"/><path class="st6" d="M59.54 49.89h9v18h-9zM68.54 40.89h9v18h-9z"/></g></switch></svg>