<svg version="1.1" id="Layer_1" xmlns="http://www.w3.org/2000/svg" x="0" y="0" viewBox="0 0 200 200" xml:space="preserve"><style>.st0{fill:#985b41}.st1{fill:#573021}</style><switch><g><path d="M113.54 63.39h9v18h-9zM140.54 36.39h9v9h-9zM59.54 27.39h81v9h-81zM104.54 162.39h27v9h-27zM104.54 153.39h9v9h-9zM86.54 144.39h27v9h-27zM149.54 45.39h9v72h-9zM131.54 63.39h9v99h-9zM140.54 117.39h9v9h-9z"/><path class="st0" d="M113.54 81.39h18v81h-18z"/><path class="st1" d="M95.54 36.39h9v108h-9zM140.54 99.39h9v18h-9z"/><path class="st0" d="M122.54 72.39h9v9h-9zM113.54 36.39h9v27h-9zM131.54 36.39h9v9h-9zM131.54 45.39h18v18h-18zM140.54 63.39h9v36h-9z"/><path d="M122.54 36.39h9v36h-9zM104.54 36.39h9v108h-9z"/><path transform="rotate(-180 82.042 72.39)" d="M77.54 63.39h9v18h-9z"/><path transform="rotate(-180 55.042 40.89)" d="M50.54 36.39h9v9h-9z"/><path transform="rotate(-180 82.042 166.89)" d="M68.54 162.39h27v9h-27z"/><path transform="rotate(-180 91.042 157.89)" d="M86.54 153.39h9v9h-9z"/><path transform="rotate(-180 46.042 81.39)" d="M41.54 45.39h9v72h-9z"/><path transform="rotate(-180 64.042 112.89)" d="M59.54 63.39h9v99h-9z"/><path transform="rotate(-180 55.042 121.89)" d="M50.54 117.39h9v9h-9z"/><path transform="rotate(-180 77.542 121.89)" class="st0" d="M68.54 81.39h18v81h-18z"/><path transform="rotate(-180 55.042 108.39)" class="st1" d="M50.54 99.39h9v18h-9z"/><path transform="rotate(-180 73.042 76.89)" class="st0" d="M68.54 72.39h9v9h-9z"/><path transform="rotate(-180 82.042 49.89)" class="st0" d="M77.54 36.39h9v27h-9z"/><path transform="rotate(-180 64.042 40.89)" class="st0" d="M59.54 36.39h9v9h-9z"/><path transform="rotate(-180 59.542 54.39)" class="st0" d="M50.54 45.39h18v18h-18z"/><path transform="rotate(-180 55.042 81.39)" class="st0" d="M50.54 63.39h9v36h-9z"/><path transform="rotate(-180 73.042 54.39)" d="M68.54 36.39h9v36h-9z"/><path transform="rotate(-180 91.042 90.39)" d="M86.54 36.39h9v108h-9z"/></g></switch></svg>