<svg version="1.1" id="Layer_1" xmlns="http://www.w3.org/2000/svg" x="0" y="0" viewBox="0 0 200 200" xml:space="preserve"><style>.st0{fill:#92f368}.st1{fill:#8e009e}.st2{fill:#120035}</style><switch><g><path class="st0" d="M46.04 90.39h18v9h-18zM64.04 81.39h18v9h-18zM82.04 72.39h18v9h-18zM100.04 63.39h9v9h-9zM109.04 54.39h18v9h-18zM100.04 81.39h27v9h-27zM100.04 99.39h27v9h-27zM82.04 108.39h18v9h-18zM64.04 99.39h18v9h-18zM100.04 117.39h9v9h-9zM109.04 126.39h18v9h-18z"/><path class="st1" d="M82.04 90.39h18v18h-18zM109.04 72.39h27v9h-27zM127.04 63.39h9v9h-9zM55.04 108.39h9v18h-9zM64.04 117.39h18v18h-18z"/><path d="M109.04 63.39h18v9h-18zM100.04 72.39h9v9h-9zM82.04 81.39h18v9h-18zM100.04 90.39h27v9h-27zM100.04 108.39h27v9h-27zM64.04 90.39h18v9h-18zM46.04 99.39h18v9h-18zM64.04 108.39h18v9h-18zM82.04 117.39h18v9h-18zM100.04 126.39h9v9h-9zM109.04 135.39h18v9h-18zM118.04 144.39h27v9h-27zM136.04 135.39h18v9h-18zM145.04 117.39h9v18h-9zM154.04 81.39h9v45h-9zM145.04 63.39h9v9h-9zM82.04 153.39h45v9h-45zM64.04 144.39h9v9h-9z"/><path class="st2" d="M73.04 144.39h45v9h-45zM82.04 126.39h18v18h-18zM100.04 135.39h9v9h-9zM55.04 135.39h27v9h-27zM46.04 126.39h18v9h-18zM46.04 108.39h9v18h-9zM136.04 54.39h9v27h-9zM145.04 72.39h9v9h-9zM127.04 81.39h27v36h-27zM127.04 117.39h18v18h-18zM109.04 117.39h18v9h-18zM127.04 135.39h9v9h-9z"/><path class="st2" d="M127.04 45.39h9v18h-9zM118.04 45.39h9v9h-9zM73.04 36.39h45v9h-45zM55.04 45.39h18v9h-18zM46.04 54.39h18v9h-18zM46.04 63.39h9v9h-9zM37.04 72.39h9v45h-9z"/><path class="st1" d="M46.04 72.39h18v18h-18zM64.04 54.39h18v27h-18zM82.04 45.39h18v27h-18zM73.04 45.39h9v9h-9zM55.04 63.39h9v9h-9zM100.04 45.39h18v9h-18zM100.04 54.39h9v9h-9z"/><path d="M64.04 27.39h63v9h-63zM46.04 36.39h27v9h-27zM118.04 36.39h27v9h-27zM136.04 45.39h18v9h-18zM37.04 45.39h18v9h-18zM37.04 54.39h9v18h-9zM145.04 54.39h18v9h-18zM154.04 63.39h9v18h-9zM28.04 63.39h9v63h-9zM37.04 117.39h9v27h-9zM46.04 135.39h9v18h-9z"/><path d="M55.04 144.39h9v18h-9zM64.04 153.39h18v9h-18zM73.04 162.39h63v9h-63zM127.04 153.39h27v9h-27zM145.04 144.39h18v9h-18zM154.04 126.39h9v18h-9zM163.04 63.39h9v72h-9z"/></g></switch></svg>